<svg id="Capa_1" data-name="Capa 1" xmlns="http://www.w3.org/2000/svg" viewBox="0 0 325.03 80.76"><defs><style>.cls-1{fill:#e81c82;}</style></defs><title>logo</title><path d="M118.12,87.91V42h6.14V87.91Z" transform="translate(-17.19 -8.24)"/><path d="M161.49,57.28V72.62a15.39,15.39,0,1,1-6.14-12.25V57.28ZM146.14,81.83a9.21,9.21,0,1,0-9.2-9.21A9.22,9.22,0,0,0,146.14,81.83Z" transform="translate(-17.19 -8.24)"/><path d="M214.69,60.28V42h6.14V72.55c0,16.18-21.82,21.33-29.06,6.86S201.74,50.57,214.69,60.28Zm-9.2,21.47a9.2,9.2,0,1,0-9.2-9.2A9.2,9.2,0,0,0,205.49,81.75Z" transform="translate(-17.19 -8.24)"/><path d="M258.08,57.28V72.62A15.38,15.38,0,1,1,252,60.37V57.28ZM242.74,81.83a9.21,9.21,0,1,0-9.21-9.21A9.22,9.22,0,0,0,242.74,81.83Z" transform="translate(-17.19 -8.24)"/><path d="M264.68,88V71a13.8,13.8,0,1,1,27.6,0V88h-6.13V71a7.67,7.67,0,1,0-15.34,0V88Z" transform="translate(-17.19 -8.24)"/><path d="M298.85,88V57.3H305V88Z" transform="translate(-17.19 -8.24)"/><path d="M342.21,57.28V72.62a15.38,15.38,0,1,1-6.13-12.25V57.28ZM326.87,81.83a9.21,9.21,0,1,0-9.21-9.21A9.22,9.22,0,0,0,326.87,81.83Z" transform="translate(-17.19 -8.24)"/><path class="cls-1" d="M94.35,8.24h-36A41.12,41.12,0,0,0,17.19,49.37v3.4A36.23,36.23,0,0,0,53.41,89H57.1A40.84,40.84,0,0,0,98,48.15V11.83A3.6,3.6,0,0,0,94.35,8.24ZM79.48,48.1A23.22,23.22,0,0,1,56.25,71.31a20.6,20.6,0,0,1-20.6-20.59A21.22,21.22,0,0,1,56.88,29.49H75.14a4.34,4.34,0,0,1,4.34,4.34Z" transform="translate(-17.19 -8.24)"/></svg>